<svg xmlns="http://www.w3.org/2000/svg" width="487" height="543" viewBox="0 0 487 543" fill="none"><g clip-path="url(#clip0_717_7413)"><path d="M27.6328 534.081C27.6328 542.059 54.6514 541.445 299.398 541.807C376.573 541.924 463.794 544.023 461.756 536.536C459.914 529.785 369.456 532.853 292.275 532.853C159.687 532.853 27.6328 528.625 27.6328 534.081Z" fill="#766782"></path><path d="M483.131 242.37L483.002 241.971C477.341 224.548 465.808 209.193 462.241 191.223C458.796 173.892 463.1 155.72 459.588 138.401C453.386 107.776 422.972 77.0288 394.356 66.1047C373.282 58.0589 350.242 56.9664 328.394 51.3755C310.403 46.7355 293.338 39.0557 277.936 28.668C266.656 21.064 256.217 11.981 243.77 6.50052C226.804 -0.962275 207.454 -1.08502 189.119 1.59079C144.65 8.27784 103.929 30.3174 74.0251 63.883C56.4998 83.6877 50.8811 103.314 49.5916 128.98C48.0749 159.279 49.2661 190.29 40.1596 219.601C35.2962 235.251 27.6021 249.944 23.3159 265.759C19.0727 281.384 18.4034 297.789 20.4974 313.807C26.3002 357.724 52.2935 387.76 91.7285 406.748C122.99 421.797 157.396 429.713 188.136 445.756C203.862 453.949 218.551 464.229 235.038 470.765C270.727 484.923 311.618 480.063 347.503 466.401C361.627 461.031 375.29 454.317 387.552 445.535C406.26 432.05 421.235 414.037 431.071 393.185C439.901 374.405 444.378 353.674 454.731 335.692C463.021 321.294 476.769 308.689 482.529 293.186C488.492 277.229 488.271 258.468 483.131 242.37Z" fill="#FFE7D7"></path><path d="M233.945 148.687C234.559 148.687 257.893 147.46 265.876 145.619C273.859 143.778 322.37 127.207 322.37 127.207L321.142 113.092C321.142 113.092 265.262 121.07 260.35 121.07C255.437 121.07 224.734 114.319 224.734 114.319L233.945 148.687Z" fill="#E9946B"></path><path d="M203.555 104.197C203.555 104.197 215.222 109.721 218.907 111.562C222.591 113.403 255.928 120.313 255.928 120.313C255.928 120.313 251.477 152.061 244.722 155.743C237.967 159.426 225.686 152.675 222.002 152.061C218.317 151.447 214.019 152.675 214.019 152.675L205.422 119.104L203.555 104.197Z" fill="#6168AA"></path><path d="M261.578 129.661C260.964 131.92 259.122 135.491 259.072 137.83C259.072 139.18 260.958 139.094 261.117 137.83C261.362 135.707 261.75 133.603 262.278 131.533C262.646 130.164 261.952 128.292 261.578 129.661Z" fill="#DE835C"></path><path d="M335.241 108.58C334.043 109.145 332.84 109.734 331.734 110.17C330.447 110.686 329.115 111.082 327.755 111.354C327.184 111.458 326.589 111.471 326.024 111.581C325.71 111.643 325.41 111.778 325.109 111.814C324.775 111.836 324.441 111.836 324.108 111.814C323.285 111.814 322.456 111.814 321.651 111.814C321.108 111.807 320.567 111.888 320.049 112.054C319.646 112.189 319.301 112.455 319.066 112.809C318.902 113.212 318.817 113.643 318.814 114.079C318.621 116.073 318.658 118.083 318.925 120.069C319.06 121.651 319.361 123.214 319.822 124.733C320.062 125.478 320.379 126.196 320.767 126.875C321.093 127.433 321.541 128.213 322.192 128.422C322.51 128.504 322.844 128.504 323.162 128.422C324.66 128.078 325.95 127.194 327.35 126.58C327.995 126.304 328.658 126.065 329.327 125.838C331.096 120.032 333.196 114.306 335.241 108.58Z" fill="#B3DDD0"></path><path d="M357.703 118.749C356.825 117.521 350.334 117.184 350.334 117.184C350.997 117.073 351.661 114.527 351.661 114.527C351.661 114.527 357.187 113.434 356.899 111.753C356.678 110.427 355.523 109.598 350.144 109.801C346.939 109.931 343.729 109.775 340.552 109.335C337.58 106.653 337.875 106.37 337.93 106.346C337.396 106.554 336.843 106.794 336.285 107.051C334.049 113.342 331.74 119.602 329.757 125.978L332.103 125.242C332.739 124.929 333.433 124.751 334.141 124.72C335.178 124.77 336.198 125.007 337.15 125.42C338.72 126.248 340.365 126.926 342.063 127.445C343.068 127.713 344.096 127.883 345.133 127.955C345.864 128.016 346.877 128.182 347.381 127.482C348.332 126.156 345.864 125.119 345.053 124.622C343.727 123.812 341.983 123.241 340.902 122.088C340.858 122.048 340.826 121.997 340.81 121.94C340.81 121.894 340.82 121.848 340.839 121.806C340.858 121.763 340.886 121.725 340.921 121.695C341.118 121.448 341.385 121.265 341.687 121.171C341.989 121.077 342.313 121.076 342.616 121.167C343.168 121.228 343.727 121.382 344.28 121.412C347.141 121.584 350.083 121.965 352.987 121.799C354.084 121.816 355.173 121.608 356.186 121.185C356.942 120.793 358.385 119.688 357.703 118.749Z" fill="#B3DDD0"></path><path d="M350.58 112.427C347.51 111.083 344.495 111.813 341.639 109.88C341.197 109.579 340.411 109.297 340.835 109.714C341.888 110.75 343.165 111.529 344.568 111.991C345.409 112.298 346.275 112.525 347.147 112.758C348.259 113.059 350.451 113.004 350.598 114.563C350.684 115.502 350.046 115.76 349.315 116.023C348.807 116.137 348.287 116.187 347.767 116.171C346.557 116.143 345.353 116.001 344.169 115.747C343.144 115.557 342.081 114.87 341.099 114.483C340.552 114.274 340.036 114.01 339.502 113.765C339.281 113.661 338.765 113.378 338.569 113.636C338.52 113.713 338.495 113.803 338.495 113.894C338.495 113.985 338.52 114.074 338.569 114.152C338.666 114.308 338.796 114.442 338.95 114.544C340.14 115.377 341.426 116.063 342.781 116.588C343.794 117.027 344.873 117.293 345.974 117.374C347.436 117.496 348.965 117.631 350.273 116.84C350.806 116.546 351.275 116.149 351.654 115.674C352.526 114.428 351.894 113.01 350.58 112.427Z" fill="#8DCCB7"></path><path d="M343.837 101.381C343.837 101.381 329.892 131.288 328.161 132.184C326.429 133.08 323.782 132.276 324.089 130.343C324.396 128.409 337.93 99.8347 338.44 99.1228C338.95 98.4109 342.726 98.4231 343.837 101.381Z" fill="white"></path><path d="M338.771 100.498C338.272 101.378 337.817 102.284 337.408 103.21C337.193 103.756 338.022 104.235 338.329 103.707C338.851 102.787 339.32 101.838 339.736 100.866C340.055 100.252 339.078 99.9268 338.771 100.498Z" fill="white"></path><path d="M337.414 104.702C337.281 104.653 337.133 104.657 337.003 104.714C336.872 104.772 336.769 104.877 336.714 105.008C336.61 105.205 336.506 105.395 336.42 105.591C336.376 105.709 336.377 105.838 336.422 105.956C336.466 106.073 336.551 106.17 336.662 106.23C336.772 106.29 336.9 106.307 337.022 106.28C337.145 106.253 337.254 106.183 337.328 106.082C337.476 105.861 337.599 105.634 337.728 105.401C337.776 105.267 337.771 105.119 337.712 104.988C337.654 104.858 337.547 104.755 337.414 104.702Z" fill="white"></path><path d="M328.535 107.647C326.902 109.169 324.132 115.275 324.132 115.275C325.76 114.422 327.645 113.047 329.518 112.992C330.302 113.002 331.085 113.075 331.857 113.213C334.928 113.606 338.145 113.71 340.393 111.2C340.557 110.991 340.661 110.741 340.694 110.478C340.728 110.214 340.689 109.946 340.583 109.703C340.435 109.439 340.231 109.211 339.986 109.034C339.741 108.858 339.461 108.736 339.165 108.678C337.627 108.178 336.052 107.802 334.455 107.555C333.239 107.33 332.007 107.205 330.77 107.18C330.113 107.18 329.082 107.143 328.535 107.647Z" fill="#B3DDD0"></path><path d="M334.264 113.134C334.031 113.134 333.798 113.104 333.57 113.079C332.619 112.987 331.648 112.594 330.69 112.68C330.591 112.681 330.494 112.714 330.414 112.772C330.341 112.866 330.306 112.985 330.316 113.104C330.254 114.377 329.896 115.619 329.272 116.731C328.677 118.008 327.988 119.239 327.209 120.413C327.01 120.631 326.872 120.898 326.81 121.186C326.797 121.247 326.808 121.311 326.84 121.364C326.89 121.407 326.953 121.433 327.018 121.438C328.523 121.597 329.573 119.492 330.224 118.425C331.136 117.034 331.71 115.449 331.9 113.797C331.869 114.153 335.026 114.024 335.302 113.981C336.607 113.736 337.866 113.291 339.036 112.662C339.486 112.452 339.901 112.172 340.264 111.833C340.444 111.659 340.588 111.451 340.685 111.219C340.782 110.988 340.831 110.74 340.829 110.489C340.833 110.423 340.819 110.356 340.789 110.297C340.758 110.238 340.713 110.188 340.657 110.152C340.442 110.053 340.251 110.323 340.147 110.532C339.799 111.164 339.316 111.712 338.732 112.136C338.149 112.56 337.479 112.851 336.77 112.987C335.945 113.151 335.102 113.201 334.264 113.134Z" fill="#8DCCB7"></path><path d="M203.009 521.322C201.166 526.76 198.422 531.756 199.324 535.929C200.098 539.488 212.441 539.194 226.797 539.531C241.154 539.869 274.578 538.715 275.222 535.788C275.867 532.86 273.073 529.417 263.967 525.496C257.666 522.789 245.907 518.487 238.79 511.994C235.609 509.103 233.319 506.734 232.649 505.133C230.494 499.953 228.621 460.374 228.621 460.374L195.806 457.76C195.806 457.76 204.673 502.733 205.017 510.852C205.164 514.111 204.255 517.64 203.009 521.322Z" fill="#A54B22"></path><path d="M275.235 535.789C274.59 538.716 241.179 539.87 226.81 539.533C212.441 539.195 200.11 539.49 199.337 535.93C198.422 531.775 200.614 526.338 202.45 520.9C203.678 517.218 204.777 513.536 204.642 510.258C204.448 506.093 203.974 501.945 203.224 497.843C221.854 490.926 229.309 487.41 230.341 487.502C231.071 495.038 231.986 502.47 232.846 504.532C233.515 506.128 235.843 508.7 239.023 511.59C246.153 518.096 257.679 522.791 263.979 525.497C273.085 529.419 275.885 532.862 275.235 535.789Z" fill="#E7ECEE"></path><path d="M275.836 533.641L275.793 533.813C275.634 534.427 275.394 535.108 275.241 535.789C274.596 538.717 241.179 539.87 226.81 539.533C212.441 539.195 200.123 539.49 199.343 535.924C198.913 533.954 199.177 531.689 199.773 529.271C200.43 526.608 201.486 523.748 202.456 520.919C207.252 521.968 219.865 524.024 222.358 523.625C228.406 522.649 229.604 518.556 232.588 514.42C234.35 511.965 236.469 510.387 239.023 511.603C246.146 518.108 262.806 523.963 269.112 526.675C275.904 529.591 276.334 531.597 275.836 533.641Z" fill="#D65D41"></path><path d="M258.28 535.113C249.53 535.479 240.765 534.973 232.115 533.604C223.371 532.321 214.565 531.474 205.809 530.308C203.782 530.032 201.768 529.694 199.773 529.246C199.158 531.664 198.913 533.929 199.343 535.899C200.123 539.465 212.459 539.176 226.81 539.508C241.16 539.839 274.596 538.691 275.241 535.764C275.394 535.083 275.634 534.432 275.793 533.788C270.052 534.806 263.942 534.813 258.28 535.113Z" fill="#E7ECEE"></path><path d="M112.336 442.577C112.336 442.577 102.413 459.375 95.1795 473.165C94.8172 473.846 94.4672 474.521 94.1233 475.19C91.7346 479.811 89.002 483.979 87.9213 486.851C87.4423 488.078 87.3625 490.355 87.2274 492.442C87.1906 492.902 87.1599 493.362 87.1169 493.798C86.9204 495.879 86.8405 498.217 86.8467 500.709C86.8467 509.018 87.8046 519.065 88.302 527.313L88.3573 528.142L88.3941 528.86C83.5226 528.86 78.6531 528.903 73.7856 528.989L70.9302 529.044C70.7399 528.755 70.5556 528.43 70.3653 528.166C69.1372 526.227 67.8476 524.153 66.552 521.986C66.4721 521.87 66.3984 521.747 66.3309 521.624C66.1712 521.348 66.0054 521.072 65.8396 520.796C56.6901 505.324 51.7531 484.046 53.0733 478.836C53.0733 478.737 53.1286 478.639 53.1593 478.541C53.6509 477.34 54.3822 476.252 55.3085 475.344C57.0217 473.502 59.4718 471.49 61.8912 469.292L62.3518 468.869C65.6186 465.849 68.431 463.296 70.0153 461.234C71.2434 459.608 73.583 454.533 75.812 450.12C76.5796 448.604 77.8998 446.388 79.5516 443.78C86.8221 432.261 100.43 413.125 100.43 413.125L102.966 419.409L104.096 422.196L112.336 442.577Z" fill="#EC9369"></path><path d="M86.8467 500.703C86.3493 508.92 86.3186 518.709 88.302 527.307C88.3634 527.584 88.431 527.86 88.4985 528.136H88.3573H72.3917H70.3899C69.1617 526.197 67.8722 524.122 66.5765 521.956C66.4967 521.839 66.423 521.716 66.3555 521.594C66.1958 521.317 66.03 521.041 65.8642 520.765C56.7147 505.293 51.7776 484.016 53.0979 478.805C53.0979 478.707 53.1531 478.609 53.1838 478.511L53.276 478.259C53.3911 477.951 53.5286 477.651 53.6874 477.363C53.7488 477.247 53.8102 477.13 53.8839 477.013C54.0742 476.682 54.2892 476.35 54.4979 476.007C54.6146 475.847 54.7251 475.694 54.8479 475.534C54.9708 475.375 55.0997 475.197 55.2348 475.031C55.3453 474.888 55.462 474.747 55.5848 474.608L56.0085 474.104C56.3524 473.705 56.7147 473.3 57.1016 472.877C57.3779 472.582 57.6542 472.294 57.9428 471.999L58.3788 471.557C58.9929 470.944 59.6069 470.367 60.221 469.771L61.1666 468.882L62.1246 467.992C65.3914 464.978 68.6521 462.1 70.2302 460.013C71.4583 458.381 73.5891 454.49 75.8182 450.053C78.8516 463.505 89.8372 472.189 94.1295 475.135C92.1085 478.925 90.2863 482.817 88.6705 486.796C88.021 488.736 87.6227 490.751 87.4853 492.792C87.4853 493.087 87.43 493.406 87.3993 493.682C87.1967 495.836 87.0002 498.205 86.8467 500.703Z" fill="#E7ECEE"></path><path d="M98.4463 531.468C98.4463 531.529 98.4463 531.59 98.4463 531.658C98.4409 531.951 98.4204 532.244 98.3849 532.535C97.9551 535.849 94.3076 535.205 91.9618 535.309C88.6091 535.465 85.2542 535.557 81.8974 535.586C77.0954 535.647 73.2514 535.444 70.0951 531.498C68.2588 529.227 66.6156 526.807 65.1826 524.262C64.8142 523.6 64.458 522.925 64.1142 522.231C62.5132 518.948 61.0926 515.58 59.8587 512.142C57.4394 505.519 55.5443 498.716 54.1909 491.797C53.4418 487.924 52.0663 482.88 53.0917 478.829C53.0917 478.731 53.147 478.633 53.1777 478.534L53.2698 478.283C53.3849 477.975 53.5224 477.675 53.6812 477.387C53.7426 477.27 53.8041 477.154 53.8777 477.037C54.0681 476.706 54.283 476.374 54.4918 476.03C54.6085 475.871 54.719 475.718 54.8418 475.558C54.9646 475.398 55.0936 475.22 55.2287 475.055L55.5664 474.637L55.9901 474.134C56.334 473.735 56.7024 473.33 57.0831 472.907C57.3595 472.612 57.6358 472.324 57.9244 472.029L58.3604 471.587C58.9744 470.973 59.5885 470.397 60.2026 469.801L61.1482 468.911L62.1062 468.021C62.0202 468.396 61.9404 468.813 61.879 469.28C61.0745 475.098 62.229 487.611 66.0055 490.999C70.4267 494.958 75.1058 491.41 80.3008 489.581C83.7211 488.354 86.0361 490.704 87.2151 492.435L87.4608 492.822C87.4301 493.116 87.4055 493.435 87.3809 493.718C87.0957 498.419 87.0957 503.132 87.3809 507.833C87.4915 510.583 87.7924 513.357 87.8169 516.112C87.782 517.257 88.0313 518.392 88.5424 519.417C89.0535 520.442 89.8105 521.324 90.746 521.986C92.6312 523.25 94.8049 524.164 96.3401 525.84C97.7174 527.389 98.4682 529.395 98.4463 531.468Z" fill="#D65D41"></path><path d="M93.5215 531.848C87.2397 531.965 79.478 531.922 73.7856 528.982C73.6137 528.896 73.4479 528.804 73.2821 528.712C72.9689 528.534 72.668 528.35 72.3671 528.154C70.0055 526.539 68.0216 524.433 66.552 521.98C66.4721 521.863 66.3984 521.74 66.3309 521.618C66.159 521.348 65.9932 521.065 65.8397 520.789C64.553 518.459 63.4505 516.031 62.5421 513.529C59.9692 506.778 58.692 499.671 57.9797 492.595C57.4173 486.794 56.5254 481.031 55.3085 475.331C55.3085 475.239 55.2655 475.141 55.2409 475.049C55.1059 475.215 54.9769 475.386 54.8541 475.552C54.7313 475.718 54.6207 475.865 54.5041 476.025C54.2646 476.368 54.0497 476.7 53.89 477.031C53.8163 477.148 53.7549 477.264 53.6935 477.381C53.5347 477.669 53.3972 477.969 53.2821 478.277L53.19 478.529C53.19 478.627 53.1286 478.725 53.104 478.823C52.0785 482.874 53.454 487.918 54.2032 491.791C55.5566 498.71 57.4517 505.513 59.871 512.136C61.0949 515.573 62.5052 518.941 64.0957 522.225C64.4396 522.919 64.7957 523.594 65.1642 524.257C66.5972 526.801 68.2404 529.221 70.0767 531.492C73.2329 535.439 77.077 535.641 81.8789 535.58C85.2317 535.551 88.5865 535.459 91.9434 535.304C94.2891 535.199 97.9366 535.844 98.3665 532.53C98.402 532.238 98.4225 531.945 98.4279 531.652C96.7392 531.695 95.0444 531.818 93.5215 531.848Z" fill="#E7ECEE"></path><path d="M138.532 201.939C143.383 225.524 155.204 259.168 158.495 279.445C158.974 282.403 167.092 320.638 168.548 330.531C174.406 369.864 187.19 500.383 188.044 502.679C189.106 505.557 231.212 488.25 231.212 488.25C231.212 488.25 221.609 349.949 219.773 334.005C218.44 322.442 208.105 242.561 203.31 201.804C202.745 196.98 203.604 196.09 203.174 192.432C202.855 189.744 202.56 187.418 202.352 185.51C200.595 185.633 195.664 186.547 180.245 189.763C174.897 190.868 167.872 193.445 160.166 195.237C152.794 196.916 145.561 199.156 138.532 201.939Z" fill="#6168AA"></path><path d="M79.3429 442.748C80.8105 450.204 82.0693 453.617 85.6922 460.239C88.0452 464.605 90.9489 468.652 94.3321 472.28C97.7647 475.913 101.775 479.755 107.258 479.743C107.772 479.745 108.286 479.704 108.793 479.62C111.207 479.215 112.005 477.951 113.129 476.06C113.779 474.98 114.406 473.882 115.02 472.783C116.567 470.003 118.041 467.192 119.49 464.375C123.291 457.011 129.137 449.695 132.68 442.214C136.77 433.554 167.037 392.939 176.807 336.47C182.038 307.3 193.294 198.93 193.294 198.93L179.902 189.768C174.412 190.878 134.94 205.964 133.485 207.651C129.972 210.487 125.913 229.469 126.509 240.123C127.737 271.423 127.848 294.351 120.767 340.711C114.369 382.505 79.3429 442.748 79.3429 442.748Z" fill="#6168AA"></path><path d="M185.889 238.282C185.595 238.281 185.311 238.393 185.098 238.595C184.885 238.798 184.759 239.075 184.746 239.369C184.611 242.664 184.482 246.027 184.354 249.513C183.199 280.261 181.897 315.107 174.326 345.572C174.209 346.039 174.025 346.837 173.779 347.892C172.293 354.367 168.812 369.507 164.63 379.805C164.55 379.98 164.515 380.173 164.528 380.364C164.541 380.556 164.603 380.742 164.707 380.904C164.811 381.066 164.954 381.199 165.123 381.291C165.292 381.384 165.481 381.432 165.674 381.432C165.902 381.43 166.125 381.362 166.314 381.234C166.503 381.106 166.65 380.925 166.736 380.714C170.998 370.213 174.516 354.938 176.015 348.377C176.254 347.34 176.438 346.536 176.549 346.094C184.169 315.408 185.483 280.426 186.644 249.569C186.773 246.083 186.902 242.72 187.037 239.43C187.043 239.278 187.018 239.127 186.964 238.985C186.909 238.843 186.827 238.713 186.722 238.604C186.616 238.494 186.49 238.407 186.35 238.348C186.21 238.288 186.059 238.258 185.907 238.258L185.889 238.282Z" fill="#FFE7D7"></path><path d="M87.0616 445.112C99.8586 425.731 111.206 405.834 120.731 384.808C121.246 383.66 123.089 384.133 122.573 385.317C113.466 406.472 102.168 427.191 88.6889 446.106C87.9766 447.155 86.3616 446.204 87.0616 445.112Z" fill="#495692"></path><path d="M132.895 244.505C139.693 238.601 145.502 232.611 149.782 224.633C150.709 222.908 153.184 224.4 152.275 226.118C148.112 233.992 142.088 241.793 134.578 246.825C133.147 247.782 131.593 245.641 132.895 244.505Z" fill="#333A74"></path><path d="M124.286 373.743C136.15 333.686 146.392 292.616 142.849 251.613C142.732 250.3 144.765 249.705 144.9 251.043C148.977 292.223 138.299 334.054 126.147 374.258C126.113 374.381 126.055 374.495 125.977 374.595C125.899 374.694 125.802 374.778 125.692 374.84C125.581 374.903 125.46 374.943 125.334 374.958C125.208 374.974 125.081 374.964 124.958 374.93C124.836 374.897 124.722 374.839 124.622 374.761C124.522 374.683 124.439 374.586 124.376 374.476C124.314 374.366 124.274 374.244 124.258 374.118C124.243 373.993 124.252 373.865 124.286 373.743Z" fill="#495692"></path><path d="M184.826 95.9121C184.826 95.9121 183.598 98.367 171.931 105.118C160.264 111.869 154.608 113.612 147.301 125.015C139.994 136.417 147.983 165.256 144.912 175.075C141.842 184.895 128.947 198.397 127.719 202.693C126.49 206.989 130.175 214.353 130.175 214.353C130.175 214.353 149.825 216.194 159.036 220.491C168.247 224.787 184.212 230.31 191.581 228.469C198.95 226.628 205.262 218.435 205.262 218.435C205.262 218.435 207.547 213.733 208.161 210.665C208.775 207.596 205.704 191.026 206.932 186.73C208.161 182.434 210.617 173.842 214.915 166.477C219.214 159.113 221.056 154.817 219.828 150.521C218.6 146.225 213.687 134.564 213.073 126.586C212.459 118.607 212.459 111.243 212.459 110.629C212.459 110.015 199.564 102.037 194.651 98.9684C191.69 97.13 188.308 96.078 184.826 95.9121Z" fill="#6168AA"></path><path d="M206.361 215.98C200 229.236 179.852 225.603 168.75 221.546C156.88 217.201 144.704 211.727 131.759 213.371C130.457 213.537 130.39 215.575 131.759 215.464C147.24 214.139 160.565 222.019 174.94 226.155C185.072 229.07 202.646 228.684 206.933 216.808C207.381 215.562 206.939 214.752 206.361 215.98Z" fill="#333A74"></path><path d="M220.024 149.914C219.711 146.722 218.379 143.869 217.347 140.88C214.719 133.3 214.621 125.899 214.406 118.007C214.406 117.104 212.993 116.847 212.772 117.792C211.299 124.205 212.207 131.472 213.871 137.768C214.719 140.984 216.162 143.991 217.04 147.189C218.164 151.264 217.402 155.087 216.825 159.169C216.629 160.525 218.495 161.133 218.931 159.752C219.945 156.577 220.317 153.233 220.024 149.914Z" fill="#333A74"></path><path d="M313.122 147.188C313.118 147.053 313.083 146.92 313.022 146.799C312.96 146.678 312.873 146.572 312.766 146.489C311.538 145.402 309.769 147.195 308.689 147.643C306.914 148.379 305.06 148.87 303.236 149.484C299.993 150.545 296.764 151.638 293.534 152.73L286.367 155.185C285.753 155.381 286.159 155.756 286.754 155.602C289.18 154.989 291.569 154.185 293.957 153.424C297.181 152.405 300.399 151.356 303.61 150.306L306.754 149.269C307.685 148.868 308.688 148.659 309.702 148.655C310.621 148.734 311.545 148.584 312.391 148.219C312.599 148.135 312.778 147.993 312.908 147.811C313.037 147.628 313.112 147.412 313.122 147.188Z" fill="white"></path><path d="M279.109 156.657C279.109 156.657 285.52 153.472 286.699 154.203C287.878 154.933 288.339 156.799 287.682 157.363C287.025 157.928 269.763 165.796 269.763 165.796L272.183 158.597L279.109 156.657Z" fill="#FA8747"></path><path d="M162.413 172.315C162.413 172.315 179.914 205.149 190.66 206.683C206.159 208.892 260.663 185.817 260.663 185.817L256.979 169.86C256.979 169.86 216.764 182.441 202.026 181.214C202.026 181.214 195.272 168.939 191.587 155.438C187.903 141.936 162.413 172.315 162.413 172.315Z" fill="#E9946B"></path><path d="M195.265 165.87C195.265 165.87 158.115 179.065 155.658 177.837C153.202 176.61 151.974 169.245 149.518 158.198C147.062 147.152 145.133 144.648 143.991 135.491C143.31 130.035 147.178 124.192 150.746 120.087C151.176 119.59 151.599 119.117 152.017 118.675C153.351 117.243 154.768 115.891 156.26 114.625C174.068 109.782 182.849 125.745 185.981 134.264C186.048 134.454 186.116 134.638 186.177 134.822C186.515 135.779 186.791 136.62 186.963 137.314C188.818 144.083 195.265 165.87 195.265 165.87Z" fill="#6168AA"></path><path d="M196.156 163.268C195.37 159.948 194.007 156.744 193.085 153.449C192.164 150.153 191.397 146.796 190.758 143.421C190.506 142.058 188.437 142.641 188.676 143.998C189.862 150.601 191.206 158.033 194.375 164.017C194.897 165.042 196.401 164.324 196.156 163.268Z" fill="#333A74"></path><path d="M159.601 177.537C157.415 174.346 156.401 170.829 155.382 167.141C154.32 163.281 153.116 159.463 151.741 155.701C148.984 148.171 143.954 140.622 143.758 132.441C143.758 131.263 141.695 131.214 141.67 132.411C141.504 140.837 146.411 148.41 149.266 156.094C150.783 160.188 152.078 164.349 153.245 168.559C154.258 172.241 155.321 175.923 157.685 178.992C158.643 180.207 160.467 178.802 159.601 177.537Z" fill="#FFE7D7"></path><path d="M186.19 134.841C186.167 134.954 186.112 135.059 186.032 135.143C185.952 135.227 185.85 135.286 185.737 135.314C185.625 135.343 185.507 135.339 185.397 135.303C185.287 135.267 185.189 135.2 185.115 135.111C181.953 129.452 176.34 126.052 170.654 123.321C164.482 120.357 157.519 118.32 150.758 120.087C151.188 119.59 151.612 119.118 152.029 118.676C158.397 117.448 164.925 119.332 170.752 122.069C176.579 124.807 182.818 128.378 185.993 134.282L186.122 134.522C186.175 134.619 186.199 134.73 186.19 134.841Z" fill="#495692"></path><path d="M204.593 180.329C202.431 180.169 200.295 180.096 198.115 179.875C196.886 179.746 196.598 181.863 197.826 182.029C200.067 182.336 201.596 181.808 203.862 181.826C205.373 181.839 206.067 180.446 204.593 180.329Z" fill="#DE835C"></path><path d="M284.63 159.623C283.34 157.844 279.809 160.157 278.323 160.783C277.58 161.096 276.843 161.397 276.113 161.741C275.589 161.919 275.05 162.053 274.504 162.14C275.388 160.851 276.665 159.317 278.188 158.819C280.356 158.108 283.58 156.248 284.022 153.799C284.181 152.934 283.85 151.756 282.794 152.13L274.762 154.953C273.879 155.231 273.027 155.599 272.22 156.052C271.567 156.486 270.951 156.972 270.377 157.506C267.536 159.99 264.576 162.332 261.498 164.533C258.581 166.626 255.628 168.743 252.183 169.86C250.555 170.388 248.891 170.738 247.27 171.241C246.751 171.35 246.285 171.634 245.95 172.045C245.725 172.469 245.625 172.948 245.661 173.426C245.642 175.85 245.847 178.27 246.275 180.656C246.779 183.687 247.379 186.703 248.075 189.702C248.142 190.236 248.354 190.741 248.689 191.162C249.499 191.985 250.893 191.61 251.894 191.04C254.283 189.671 256.192 187.449 258.827 186.627C261.461 185.805 264.415 186.547 267.16 186.013C270.482 185.357 273.128 182.902 275.443 180.428C276.542 179.256 277.605 178.053 278.673 176.85C279.251 176.284 279.703 175.602 280 174.85C280.245 174.064 280.141 173.211 280.368 172.395C280.859 170.646 282.824 169.498 282.966 167.688C283.015 166.914 282.708 166.153 282.775 165.386C282.867 164.325 283.647 163.471 284.237 162.582C284.826 161.692 285.256 160.489 284.63 159.623Z" fill="#B3DDD0"></path><path d="M257.771 180.489C256.579 177.518 257.04 174.486 257.593 171.43C257.844 170.037 255.658 169.884 255.4 171.258C254.786 174.634 254.209 178.236 255.836 181.422C255.966 181.667 256.187 181.853 256.451 181.939C256.715 182.026 257.003 182.007 257.253 181.886C257.503 181.765 257.697 181.552 257.794 181.292C257.89 181.031 257.882 180.743 257.771 180.489Z" fill="#8DCCB7"></path><path d="M237.636 49.6617C236.77 48.2686 234.43 46.5931 233.061 45.8628C226.988 42.6838 225.299 34.8159 218.231 32.7784C215.974 32.1454 213.596 32.0737 211.305 32.5697C210.476 32.3662 209.616 32.328 208.773 32.4576C207.93 32.5871 207.121 32.8818 206.392 33.3246C205.505 33.8097 204.721 34.462 204.083 35.2455L203.868 35.3499C202.503 34.8726 201.037 34.7542 199.613 35.0062C198.5 35.2664 197.473 35.8092 196.632 36.5823C195.791 37.3554 195.164 38.3324 194.811 39.4188C191.464 40.4192 187.694 40.7137 185.385 43.6535C184.243 45.1018 183.905 46.8816 183.795 48.6798C183.604 51.7484 183.181 54.8169 181.142 57.2718C180.45 58.0955 179.634 58.8058 178.723 59.3769C178.035 59.8187 178.385 61.7213 178.397 62.3779C178.434 63.9675 177.844 65.1949 177.433 66.674C177.022 68.153 177.108 70.3563 178.25 71.6205C179.392 72.8848 180.295 73.5292 180.638 75.2353C180.702 75.8552 180.918 76.4498 181.267 76.966C181.616 77.4821 182.088 77.9038 182.64 78.1934C183.144 78.5248 183.838 78.8071 184.31 79.1692C184.452 79.3349 184.593 79.5068 184.746 79.6725C184.9 79.8382 184.894 79.832 184.968 79.918C185.428 80.7219 185.158 81.4523 185.379 82.4772C185.754 84.2324 186.742 84.3183 187.835 85.4537C188.787 86.4847 188.996 87.7122 190.359 88.3259C190.551 88.4136 190.762 88.4536 190.973 88.4425C191.784 89.5288 192.428 90.1916 192.778 90.0136C199.951 86.3313 206.638 84.619 213.27 80.01C219.287 75.8306 225.882 71.5346 230.795 65.9989C231.11 66.0717 231.441 66.0446 231.74 65.9214C232.039 65.7983 232.293 65.5851 232.465 65.3115C234.842 61.8072 237.298 58.9595 238.065 54.7985C238.36 53.0617 238.594 51.2451 237.636 49.6617Z" fill="#6C4E4E"></path><path d="M231.876 61.6987C232.59 64.8606 232.538 68.1475 231.722 71.2849C231.176 73.4329 230.31 75.317 230.31 77.6001C230.31 78.3304 233.632 85.4495 233.38 86.3455C232.858 88.2726 229.892 87.6589 229.395 87.9044C229.149 88.0121 228.923 88.1593 228.726 88.3401C227.976 89.1257 228.394 89.7823 228.345 90.795C228.18 92.0568 227.86 93.2935 227.393 94.4773C226.472 97.4661 225.962 100.001 223.709 101.688C218.796 105.291 208.732 99.4422 208.118 99.8903C207.126 101.125 206.21 102.418 205.373 103.763C203.709 106.273 201.922 109.065 201.922 109.065L184.243 96.5885C184.243 96.5885 189.954 90.6047 190.439 87.4195C190.439 87.4195 193.902 82.5098 196.352 80.7055C196.352 80.7055 191.851 74.5683 194.252 69.5174C197.679 62.294 203.211 71.4199 203.739 71.5059C204.267 71.5918 207.319 71.2297 207.725 68.5784C208.13 65.9272 207.921 63.7116 209.567 63.4232C211.213 63.1348 214.271 64.6506 216.186 62.8095C218.102 60.9683 227.688 60.4835 229.819 60.8088C231.949 61.134 231.876 61.6987 231.876 61.6987Z" fill="#EA8A6F"></path><path d="M204.783 102.358C204.783 102.358 207.24 125.679 202.941 129.975C198.643 134.271 190.046 112.791 186.976 108.495C184.724 105.462 182.261 102.591 179.607 99.903C182.533 98.105 185.094 95.7708 187.154 93.0233C190.064 88.8561 190.371 87.9355 190.371 87.9355L204.783 102.358Z" fill="#EA8A6F"></path><path d="M195.959 39.6473C193.337 36.1 194.964 32.0741 194.614 28.0726C194.375 25.2495 192.772 23.2918 190.316 21.9355C183.813 18.3698 178.078 20.6098 172.508 24.6726C171.446 25.4459 172.631 27.0293 173.736 26.3051C176.266 24.6235 178.95 22.6658 182.032 22.2178C184.98 21.7882 189.321 22.9174 191.317 25.2863C192.197 26.4227 192.648 27.8334 192.588 29.2694L192.478 29.1466C190.261 26.747 186.847 26.1824 183.727 26.1087C177.501 25.9676 170.881 28.6065 168.621 34.848C168.097 36.2595 167.88 37.7668 167.986 39.2687C168.092 40.7707 168.518 42.2327 169.235 43.5567C169.954 44.9376 171.299 46.5209 170.869 48.178C170.513 49.5466 169.076 50.6328 168.474 51.9216C165.238 58.9855 175.769 60.6487 180.331 59.7281C181.216 59.5501 182.419 57.9545 182.585 57.6169C184.132 54.3827 184.55 50.952 184.863 47.4292C185.225 43.3051 189.106 42.0654 192.643 41.47C193.319 41.3596 194.872 41.4701 195.308 40.9975C195.462 40.9899 195.61 40.9412 195.738 40.8564C195.866 40.7716 195.969 40.654 196.035 40.5157C196.102 40.3775 196.13 40.2239 196.117 40.0711C196.103 39.9183 196.049 39.7719 195.959 39.6473Z" fill="#6C4E4E"></path><path d="M227.068 68.5661C224.525 67.891 222.616 68.787 220.54 70.1372C219.637 70.7509 220.632 72.3097 221.566 71.7451C222.646 71.1314 222.536 71.3339 223.739 70.9657C224.943 70.5975 226.073 70.6036 227.141 70.1188C227.287 70.0441 227.409 69.929 227.491 69.7871C227.574 69.6452 227.613 69.4825 227.606 69.3187C227.598 69.1548 227.543 68.9967 227.448 68.8632C227.352 68.7297 227.22 68.6265 227.068 68.5661Z" fill="#6C4E4E"></path><path d="M224.403 74.8249C224.432 74.4942 224.365 74.1621 224.21 73.8683C224.056 73.5745 223.82 73.3314 223.531 73.1678C223.471 73.0154 223.363 72.8866 223.223 72.8013C223.084 72.7159 222.92 72.6787 222.757 72.6953C221.529 72.7689 220.915 73.7509 220.915 74.9231C220.878 75.9602 221.302 77.1079 222.524 77.1202C223.746 77.1324 224.304 75.862 224.403 74.8249Z" fill="#1A1A1A"></path><path d="M228.24 92.3598C228.566 91.6847 228.898 90.2732 228.173 90.0645C226.153 89.4508 221.946 88.6591 221.817 89.5183C221.639 90.7089 224.992 95.8335 226.361 94.827C227.183 94.1729 227.828 93.3251 228.24 92.3598Z" fill="white"></path><path d="M199.539 82.2867C198.545 81.9088 197.646 81.3181 196.905 80.556C196.512 80.1571 195.812 80.8261 196.193 81.2311C197 82.1136 198.003 82.7946 199.122 83.2196C199.736 83.4466 200.153 82.5261 199.539 82.2867Z" fill="#DD7860"></path><path d="M194.148 41.7272C187.737 46.0232 186.57 56.0022 178.686 58.3343C177.494 58.6903 178.225 60.4026 179.386 60.108C187.682 58.0029 189.094 48.0177 195.351 43.378C195.546 43.2099 195.67 42.9748 195.699 42.7195C195.728 42.4642 195.661 42.2072 195.509 41.9995C195.358 41.7918 195.134 41.6485 194.882 41.5981C194.629 41.5476 194.368 41.5937 194.148 41.7272Z" fill="#4A3333"></path><path d="M228.676 87.1415C228.197 87.1108 227.719 87.0862 227.24 87.0801C226.761 87.074 226.662 88.0191 227.24 88.0682C227.676 88.105 228.105 88.1173 228.541 88.1418C228.674 88.1579 228.808 88.1223 228.916 88.0424C229.023 87.9624 229.096 87.8442 229.119 87.7122C229.128 87.6456 229.124 87.5777 229.107 87.5127C229.09 87.4476 229.059 87.3867 229.018 87.3335C228.977 87.2803 228.925 87.2359 228.867 87.2029C228.808 87.1699 228.743 87.149 228.676 87.1415Z" fill="#DD7860"></path><path d="M233.626 85.45C233.622 86.063 233.457 86.6642 233.147 87.1929C232.932 87.6225 232.674 88.0399 232.441 88.4204C232.336 88.6045 232.232 88.7824 232.146 88.9543L230.076 93.0539C229.143 95.0577 228.064 96.99 226.847 98.8351C226.589 99.2034 226.318 99.5593 226.036 99.8969C225.032 101.166 223.731 102.169 222.247 102.818C219.349 104.003 216.014 103.432 213.122 102.204C207.387 99.8539 203.506 95.4044 200.135 90.372C199.214 88.9972 198.362 87.5796 197.58 86.1189C196.872 84.6405 196.279 83.1099 195.806 81.5406C195.566 80.8778 196.598 80.62 196.85 81.2583C197.507 82.9399 198.25 84.5724 199.011 86.168C200.313 85.941 202.695 85.5543 204.783 85.1063C207.854 84.4926 209.082 83.2651 209.696 80.1966C210.021 78.5763 210.347 77.128 210.58 76.1215L210.089 75.8085C207.884 74.408 205.785 72.8491 203.807 71.1442C203.746 71.0952 203.701 71.03 203.676 70.9561C203.651 70.8822 203.647 70.8027 203.666 70.7269C203.663 70.6559 203.676 70.5852 203.704 70.5198C203.732 70.4543 203.773 70.3957 203.826 70.3478C203.878 70.3 203.941 70.2641 204.008 70.2427C204.076 70.2212 204.148 70.2147 204.218 70.2237C204.274 70.2131 204.332 70.2147 204.387 70.2285C204.442 70.2423 204.493 70.2679 204.538 70.3034C207.143 72.263 209.88 74.0408 212.729 75.6244C223.58 80.8471 232.41 80.8532 232.41 80.8532C233.05 82.3137 233.46 83.8643 233.626 85.45Z" fill="#E7ECEE"></path><path d="M233.147 87.1922C232.932 87.6218 232.674 88.0392 232.441 88.4197C225.69 88.8432 218.983 87.0643 213.331 83.3504C212.717 82.9637 213.288 82.0063 213.89 82.393C219.59 86.1033 226.371 87.7933 233.147 87.1922Z" fill="#ACBDCF"></path><path d="M226.847 98.8532C226.589 99.2215 226.318 99.5774 226.036 99.915C220.11 99.0558 214.547 95.1157 211.059 90.433C210.641 89.8684 211.587 89.3345 211.999 89.8807C213.983 92.4963 216.493 94.6683 219.367 96.2572C221.719 97.4849 224.239 98.3596 226.847 98.8532Z" fill="#ACBDCF"></path><path opacity="0.5" d="M237.826 60.5859C237.758 61.1076 237.697 61.6293 237.636 62.1448C236.985 67.4268 236.33 72.7089 235.671 77.991C234.766 85.1878 233.843 92.3867 232.901 99.5877C232.527 102.429 232.146 105.265 231.734 108.1C231.593 109.076 231.452 110.045 231.298 111.015C231.034 112.635 230.328 113.218 228.572 112.709C221.295 110.592 212.993 105.633 210.003 98.3663C205.704 87.9332 209.389 60.9296 209.389 60.9296L237.826 60.5859Z" fill="white"></path><path d="M177.765 60.6239C177.765 60.6239 189.432 56.9416 200.485 56.9416C201.099 56.9416 203.555 53.873 205.397 53.873C207.24 53.873 236.715 56.3279 237.943 58.1691L237.022 67.068C237.022 67.068 206.018 65.5337 205.404 64.3062C204.294 62.5838 202.829 61.1189 201.105 60.0102C199.877 59.3965 178.999 64.3062 178.385 63.6925C177.771 63.0788 177.765 60.6239 177.765 60.6239Z" fill="white"></path><path d="M369.327 521.275C369.284 518.648 369.155 514.659 368.781 513.91C367.86 512.069 325.342 476.78 325.342 476.78L336.205 461.357C336.205 461.357 376.782 509.909 377.347 512.192C377.82 514.088 378.268 520.084 377.777 521.931C378.323 522.594 377.777 527.866 377.777 528.523C377.729 529.007 377.539 529.466 377.23 529.842C377.23 529.842 378.323 534.457 377.777 534.457H376.684C376.684 534.457 375.591 540.84 369.039 541.055C360.872 541.312 360.872 535.028 360.872 535.028C360.872 535.028 358.016 535.955 358.016 533.316C358.041 530.818 355.959 521.612 369.327 521.275Z" fill="#333333"></path><path d="M329.137 304.354C329.137 304.354 250.076 299.322 247.332 303.274C244.587 307.227 245.747 315.892 247.442 316.985C249.137 318.077 327.117 320.053 329.88 317.199C332.643 314.346 330.844 304.354 329.137 304.354Z" fill="#EA4550"></path><path d="M325.152 436.791H338.329V395.095H325.152V436.791Z" fill="#ACBDCF"></path><path d="M389.757 381.954C389.757 381.954 369.493 404.514 334.037 405.656C298.581 406.797 277.74 380.812 277.74 380.812L389.757 381.954Z" fill="#333333"></path><path d="M396.548 375.663L273.478 374.129C273.478 374.129 273.227 380.045 276.911 384.341C279.122 386.919 279.981 389.251 315.155 389.38C365.452 389.558 387.123 389.38 391.12 386.52C393.576 384.758 395.191 380.996 396.033 378.437C396.276 377.527 396.448 376.6 396.548 375.663Z" fill="#4D4D4D"></path><path d="M339.772 453.721C339.772 453.721 341.087 414.824 339.772 414.167C338.458 413.51 324.599 412.848 323.936 414.167C323.273 415.487 323.936 453.065 323.936 453.065L339.772 453.721Z" fill="#333333"></path><path d="M344.39 462.953C344.39 462.953 404.415 506.465 406.41 509.104C408.406 511.743 408.394 522.287 407.074 522.287C405.753 522.287 399.815 522.287 399.815 521.63V513.719L337.181 479.437C337.181 479.437 327.97 480.094 325.968 479.437C325.968 479.437 246.81 515.033 246.81 516.352V522.287C246.81 522.287 239.551 522.287 238.894 521.63C238.237 520.974 238.231 511.737 239.551 510.424C240.872 509.11 320.687 461.633 320.687 461.633C320.687 461.633 320.687 452.428 321.351 451.746C322.014 451.065 343.119 451.084 344.439 452.403C345.76 453.723 344.39 462.953 344.39 462.953Z" fill="#4D4D4D"></path><path d="M407.712 520.997C407.712 520.997 400.46 520.997 399.797 521.66C399.134 522.323 399.797 527.595 399.797 528.251C399.868 528.752 400.101 529.215 400.46 529.571C400.46 529.571 399.14 534.186 399.797 534.186H401.117C401.117 534.186 402.437 540.777 410.328 540.777C412.126 540.833 413.888 540.276 415.327 539.197C416.765 538.119 417.794 536.583 418.243 534.843C418.243 534.843 420.884 534.843 420.884 532.21C420.884 529.577 419.588 520.31 407.712 520.997Z" fill="#4D4D4D"></path><path d="M418.249 534.279C418.467 534.28 418.676 534.197 418.834 534.049C418.993 533.901 419.089 533.698 419.103 533.481C419.103 533.266 419.103 533.052 419.103 532.837C419.04 530.378 418.019 528.04 416.256 526.323C414.493 524.606 412.129 523.645 409.668 523.645C407.206 523.645 404.842 524.606 403.08 526.323C401.317 528.04 400.296 530.378 400.233 532.837C400.233 533.065 400.323 533.283 400.485 533.444C400.646 533.605 400.865 533.696 401.093 533.696C401.321 533.696 401.539 533.605 401.7 533.444C401.862 533.283 401.952 533.065 401.952 532.837C401.952 530.791 402.766 528.829 404.213 527.382C405.661 525.935 407.624 525.122 409.671 525.122C411.718 525.122 413.681 525.935 415.129 527.382C416.577 528.829 417.39 530.791 417.39 532.837C417.39 533.015 417.39 533.193 417.39 533.365C417.381 533.477 417.395 533.589 417.431 533.696C417.466 533.803 417.522 533.901 417.596 533.986C417.669 534.071 417.759 534.141 417.86 534.191C417.96 534.241 418.07 534.271 418.182 534.279H418.249Z" fill="#333333"></path><path d="M239.208 520.997C239.208 520.997 246.466 520.997 247.123 521.66C247.78 522.323 247.123 527.595 247.123 528.251C247.053 528.751 246.823 529.214 246.466 529.571C246.466 529.571 247.786 534.186 247.123 534.186H245.809C245.809 534.186 244.489 540.777 236.598 540.777C234.8 540.834 233.037 540.277 231.598 539.199C230.159 538.12 229.131 536.584 228.683 534.843C228.683 534.843 226.042 534.843 226.042 532.21C226.042 529.577 227.338 520.31 239.208 520.997Z" fill="#4D4D4D"></path><path d="M228.676 534.279H228.732C228.959 534.263 229.17 534.158 229.32 533.987C229.47 533.815 229.545 533.592 229.53 533.365C229.53 533.193 229.53 533.015 229.53 532.837C229.53 530.791 230.343 528.829 231.791 527.382C233.238 525.935 235.202 525.122 237.249 525.122C239.296 525.122 241.259 525.935 242.707 527.382C244.154 528.829 244.967 530.791 244.967 532.837C244.957 532.955 244.972 533.075 245.011 533.187C245.049 533.3 245.111 533.403 245.191 533.491C245.272 533.578 245.369 533.648 245.478 533.696C245.587 533.744 245.705 533.769 245.824 533.769C245.943 533.769 246.061 533.744 246.17 533.696C246.279 533.648 246.377 533.578 246.457 533.491C246.538 533.403 246.599 533.3 246.638 533.187C246.676 533.075 246.691 532.955 246.681 532.837C246.681 530.337 245.687 527.939 243.918 526.171C242.149 524.403 239.75 523.41 237.249 523.41C234.747 523.41 232.348 524.403 230.579 526.171C228.81 527.939 227.817 530.337 227.817 532.837C227.817 533.054 227.817 533.269 227.817 533.481C227.832 533.698 227.93 533.901 228.089 534.05C228.249 534.198 228.459 534.28 228.676 534.279Z" fill="#333333"></path><path d="M273.435 375.632C273.449 375.984 273.535 376.329 273.689 376.646C273.842 376.963 274.059 377.244 274.326 377.474C274.848 377.786 275.442 377.96 276.051 377.977C279.951 378.394 283.807 378.861 287.718 378.934C306.918 379.307 326.118 379.575 345.317 379.738C362.763 379.861 363.033 379.935 380.472 379.395C385.219 379.247 389.96 379.106 394.694 378.683C396.444 378.529 396.321 377.615 396.653 375.915C397.709 370.447 395.824 363.291 392.232 359.013C389.56 355.84 385.115 353.563 381.142 352.501C379.33 352.017 377.199 352.207 375.308 352.158C370.604 352.027 365.897 351.914 361.185 351.82C348.596 351.55 336.004 351.37 323.408 351.28C315.879 351.237 308.351 351.213 300.816 351.28C294.197 351.366 287.184 350.851 281.394 354.723C278.323 356.785 276.156 360.056 274.946 363.567C273.826 367.116 273.292 370.825 273.368 374.546C273.368 374.909 273.39 375.272 273.435 375.632Z" fill="#EA4550"></path><path d="M282.087 521.28C282.087 521.28 288.093 521.28 288.64 521.937C289.186 522.593 288.64 527.871 288.64 528.528C288.592 529.012 288.402 529.472 288.093 529.848C288.093 529.848 289.186 534.463 288.64 534.463H287.553C287.553 534.463 286.453 540.845 279.908 541.054C271.741 541.318 271.741 535.033 271.741 535.033C271.741 535.033 268.879 535.96 268.879 533.321C268.879 530.682 266.595 520.752 282.087 521.28Z" fill="#4D4D4D"></path><path d="M273.368 534.592H273.417C273.644 534.578 273.856 534.474 274.007 534.304C274.158 534.134 274.235 533.911 274.221 533.684C274.221 533.506 274.221 533.328 274.221 533.144C274.221 528.89 277.021 525.429 280.46 525.429C283.899 525.429 286.705 528.89 286.705 533.144C286.695 533.262 286.71 533.381 286.748 533.494C286.787 533.607 286.848 533.71 286.929 533.797C287.009 533.885 287.107 533.955 287.216 534.003C287.325 534.051 287.443 534.075 287.562 534.075C287.681 534.075 287.799 534.051 287.908 534.003C288.017 533.955 288.114 533.885 288.195 533.797C288.275 533.71 288.337 533.607 288.375 533.494C288.414 533.381 288.429 533.262 288.418 533.144C288.418 527.945 284.851 523.717 280.436 523.717C276.021 523.717 272.508 527.945 272.508 533.144C272.508 533.358 272.508 533.573 272.508 533.757C272.513 533.981 272.606 534.195 272.767 534.351C272.928 534.507 273.144 534.594 273.368 534.592Z" fill="#333333"></path><path d="M326.036 461.35C326.036 461.35 281.455 509.901 280.884 512.184C280.313 514.467 279.772 522.727 280.884 522.47C281.995 522.212 288.867 523.611 288.867 523.611C288.867 523.611 288.867 515.019 289.438 513.902C290.359 512.061 336.874 476.772 336.874 476.772L326.036 461.35Z" fill="#4D4D4D"></path><path d="M291.458 499.052C291.574 499.049 291.689 499.022 291.794 498.974C291.9 498.925 291.994 498.856 292.072 498.769L318.078 469.925C318.229 469.756 318.307 469.535 318.295 469.308C318.283 469.082 318.182 468.87 318.013 468.719C317.845 468.567 317.623 468.489 317.397 468.501C317.17 468.513 316.958 468.615 316.807 468.783L290.801 497.628C290.692 497.75 290.621 497.9 290.595 498.061C290.568 498.223 290.589 498.388 290.653 498.538C290.718 498.688 290.824 498.817 290.958 498.909C291.093 499.001 291.252 499.052 291.415 499.058L291.458 499.052Z" fill="white"></path><path d="M385.446 423.317C385.348 423.317 375.892 420.586 366.552 417.622C346.902 411.393 346.902 410.221 346.902 409.085C346.902 408.472 346.902 406.802 366.214 392.177C366.458 391.994 366.765 391.916 367.068 391.959C367.37 392.002 367.643 392.163 367.826 392.408C368.009 392.652 368.088 392.959 368.045 393.261C368.001 393.563 367.84 393.835 367.596 394.019C359.729 399.972 351.274 406.821 349.45 408.944C352.606 410.933 369.997 416.542 386.079 421.139C386.341 421.218 386.566 421.388 386.714 421.618C386.862 421.849 386.922 422.125 386.884 422.396C386.847 422.667 386.713 422.916 386.508 423.097C386.303 423.278 386.039 423.38 385.766 423.385C385.656 423.378 385.549 423.355 385.446 423.317Z" fill="#333333"></path><path d="M374.215 418.132C374.215 418.132 392.373 416.548 396.862 420.832C398.618 422.508 390.107 428.81 383.758 428.81C377.408 428.81 374.215 418.132 374.215 418.132Z" fill="#333333"></path><path d="M335.419 504.109C331.212 536.961 322.701 535.979 320.393 536.544C318.084 537.108 319.6 535.2 317.322 530.861C315.044 526.522 315.345 524.006 314.522 515.641C313.699 507.276 310.052 500.519 307.356 492C306.969 490.773 305.262 486.937 304.826 485.931C304.205 484.485 303.462 483.095 302.603 481.776C301.621 480.168 300.375 478.737 298.919 477.541L301.375 435.078C301.375 435.078 315.149 451.906 318.348 454.877C318.388 454.921 318.431 454.962 318.477 454.999C319.508 455.951 321.903 461.75 324.513 462.714C329.861 464.696 335.64 467.531 337.187 468.802C339.508 470.674 339.625 471.287 335.419 504.109Z" fill="#EA9169"></path><path d="M338.213 467.941C336.665 466.671 329.702 462.945 324.347 460.963C321.744 460 319.521 455.949 318.489 454.998C318.443 454.96 318.4 454.919 318.36 454.875C315.529 470.316 305.324 479.54 302.585 481.774C303.443 483.093 304.187 484.483 304.808 485.929C305.274 487.016 305.684 488.126 306.036 489.255C308.732 497.774 312.305 507.305 313.128 515.645C313.951 523.986 313.546 528.079 315.836 532.418C316.708 534.075 317.427 535.542 318.108 536.714C318.605 537.092 319.156 537.394 319.742 537.61C320.405 537.727 321.068 537.856 321.731 537.966C321.928 537.966 322.13 537.966 322.345 537.966C323.128 537.891 323.892 537.684 324.605 537.352C327.381 535.677 329.235 532.995 330.905 530.178C333.491 524.968 336.027 516.676 337.709 503.555C341.934 470.672 340.522 469.825 338.213 467.941Z" fill="white"></path><path d="M338.213 467.943C336.665 466.672 329.702 462.947 324.347 460.965C324.961 464.083 327.037 471.459 325.017 476.664C322.382 483.415 314.688 478.266 313.534 478.548C312.379 478.83 311.648 480.849 310.199 482.427C309.155 483.562 306.324 485.139 304.808 485.931C305.274 487.018 305.684 488.128 306.036 489.257C308.732 497.776 311.925 507.699 312.748 516.064C313.411 522.76 313.245 526.915 314.332 530.53C314.332 530.622 314.387 530.714 314.418 530.806C314.671 531.62 315 532.409 315.4 533.162C315.695 533.727 316.014 534.261 316.266 534.752C317.095 536.043 318.306 537.045 319.729 537.618C320.393 537.741 321.056 537.864 321.719 537.974C321.924 537.986 322.129 537.986 322.333 537.974C323.116 537.899 323.88 537.691 324.593 537.36C327.368 535.685 329.223 533.003 330.893 530.186C333.478 524.975 336.014 516.684 337.697 503.563C341.934 470.674 340.522 469.827 338.213 467.943Z" fill="#A34B22"></path><path d="M338.213 467.942C336.499 466.727 334.687 465.655 332.797 464.738C334.27 469.034 333.65 477.105 333.411 480.081C332.797 487.575 333.957 490.699 334.639 498.493C334.897 501.457 333.165 519.973 329.223 528.884C327.147 533.579 324.679 536.494 322.53 537.936C323.272 537.845 323.995 537.638 324.673 537.323C327.418 535.647 329.254 532.977 330.912 530.185C333.497 524.975 336.033 516.683 337.715 503.562C341.934 470.673 340.522 469.826 338.213 467.942Z" fill="#1A1A1A"></path><path d="M221.381 415.651C233.386 432.786 279.68 490.482 287.7 491.053C295.72 491.623 301.504 486.419 303.702 471.058C305.987 455.064 304.845 439.071 304.845 439.071C302.56 436.217 256.837 376.809 256.837 376.809L384.838 287.906L319.914 295.357C319.914 295.357 299.65 302.108 280.859 308.908C277.943 309.963 275.056 311.405 272.035 312.737C240.859 326.564 203.211 346.179 200.239 361.387C196.18 382.13 209.383 398.516 221.381 415.651Z" fill="#6C4E4E"></path><path d="M271.79 396.701C284.949 413.603 303.371 437.249 304.826 439.048C304.826 439.048 305.968 455.041 303.684 471.035C301.486 486.378 295.701 492.742 287.682 491.029C283.696 490.176 269.696 475.736 255.394 458.785C261.001 438.145 266.091 417.34 271.79 396.701Z" fill="#4A3333"></path><path d="M207.663 493.337C208.812 496.762 251.102 504.188 255.677 500.193C258.133 498.063 275.106 368.243 279.109 363.671C281.823 360.603 355.118 364.819 372.269 359.105C382.094 355.828 389.364 342.817 392.741 330.604C393.606 327.537 394.222 324.405 394.584 321.239C394.872 318.655 395.044 316.114 395.148 313.684C395.345 309.087 395.271 304.883 395.148 301.551C395.105 300.771 395.062 300.047 395.026 299.372C395.029 299.346 395.029 299.319 395.026 299.292C395.026 299.09 394.995 298.887 394.989 298.679C394.927 297.764 394.866 296.966 394.811 296.297C394.811 296.15 394.811 296.021 394.774 295.898C394.737 295.776 394.774 295.739 394.774 295.659C394.774 295.579 394.774 295.573 394.774 295.53C394.688 294.524 394.614 293.965 394.614 293.965L363.752 293.395C363.752 293.395 245.975 314.654 232.306 325.381C224.243 331.684 207.663 493.337 207.663 493.337Z" fill="#6C4E4E"></path><path d="M213.957 427.651C214.238 427.65 214.508 427.546 214.717 427.36C214.927 427.173 215.06 426.916 215.093 426.638C215.136 426.239 219.723 386.286 224.802 352.992C224.835 352.839 224.837 352.68 224.807 352.526C224.776 352.372 224.715 352.226 224.626 352.097C224.537 351.967 224.422 351.858 224.289 351.775C224.156 351.691 224.007 351.636 223.852 351.613C223.697 351.589 223.538 351.598 223.387 351.638C223.235 351.678 223.093 351.748 222.969 351.846C222.846 351.943 222.744 352.064 222.669 352.202C222.595 352.34 222.549 352.492 222.536 352.648C217.445 385.986 212.858 425.975 212.815 426.374C212.781 426.676 212.867 426.979 213.056 427.217C213.245 427.456 213.52 427.609 213.822 427.645L213.957 427.651Z" fill="#6168AA"></path><path d="M234.651 500.427C234.651 500.427 254.535 503.618 255.677 500.194C256.819 496.769 237.384 492.768 237.384 492.768L234.651 500.427Z" fill="#1A1A1A"></path><path d="M272.035 312.74C294.815 308.641 317.845 306.086 340.97 305.093C341.272 305.079 341.557 304.946 341.762 304.723C341.966 304.5 342.075 304.205 342.063 303.902C342.057 303.752 342.02 303.605 341.957 303.469C341.893 303.332 341.803 303.21 341.691 303.109C341.58 303.008 341.45 302.93 341.308 302.88C341.166 302.83 341.016 302.808 340.865 302.816C320.762 303.686 300.727 305.721 280.859 308.91C278.006 310.126 275.065 311.402 272.035 312.74Z" fill="#4A3333"></path><path d="M238.864 534.461C238.286 538.462 226.859 538.462 206.853 539.604C186.847 540.745 166.619 539.033 163.758 536.173C160.896 533.313 169.137 531.607 173.135 530.465C177.132 529.324 197.138 517.897 201.142 511.612C202.467 509.43 203.542 507.106 204.347 504.683C206.085 499.718 208.247 489.34 208.247 489.34C213.558 487.192 237.384 492.765 237.384 492.765C236.813 501.903 236.77 508.863 237.022 512.741C237.795 524.304 239.287 531.472 238.864 534.461Z" fill="#EA9169"></path><path d="M238.864 534.463C238.286 538.464 226.859 538.464 206.853 539.606C186.847 540.747 166.619 539.035 163.758 536.175C160.896 533.315 169.137 531.609 173.135 530.467C177.132 529.326 197.138 517.898 201.142 511.614C202.467 509.432 203.542 507.108 204.347 504.685C207.596 504.519 219.349 504.624 237.028 512.743C237.795 524.306 239.287 531.474 238.864 534.463Z" fill="white"></path><path d="M238.004 519.327C238.004 519.327 223.408 527.496 217.126 525.213C210.844 522.93 211.102 519.076 207.405 514.356C206.14 512.736 200.282 510.76 198.569 511.901C196.856 513.043 188.333 522.684 179.914 525.489C170.703 528.558 164.618 529.607 161.762 532.461C158.907 535.315 158.901 538.175 159.472 538.745C160.043 539.316 171.139 543.318 196.856 542.747C222.573 542.176 238.575 541.034 239.717 539.316C240.859 537.598 238.575 525.041 238.004 519.327Z" fill="#A34B22"></path><path d="M196.856 542.748C222.573 542.177 238.575 541.036 239.717 539.317C240.215 538.581 240.067 535.807 239.717 532.438C235.898 532.928 229.395 533.739 220.313 534.751C204.882 536.463 206.595 538.176 192.306 539.317C179.699 540.33 165.496 538.464 159.324 536.617C159.085 537.679 159.226 538.458 159.496 538.746C160.043 539.317 171.133 543.319 196.856 542.748Z" fill="#1A1A1A"></path><path d="M261.455 365.145C261.523 364.478 261.773 363.842 262.18 363.308C262.586 362.774 263.132 362.363 263.758 362.12C264.728 361.665 266.103 361.641 266.982 360.997C268.21 360.076 268.394 358.284 268.867 356.934C269.49 355.19 270.611 353.666 272.091 352.552C275.591 349.839 280.251 349.121 284.507 348.52C290.566 347.684 296.667 347.195 302.781 347.053C315.677 346.685 328.511 347.427 341.375 347.39C347.46 347.39 354.068 347.716 359.901 345.752C365.047 344.021 369.217 340.228 372.226 335.803C379.993 324.339 379.68 309.935 381.602 296.74C381.756 295.673 383.444 295.697 383.303 296.777C380.65 314.98 380.528 343.475 357.378 348.17C351.802 349.299 345.895 349.09 340.233 349.09C333.613 349.09 326.988 348.894 320.368 348.765C307.54 348.52 294.504 348.391 281.823 350.649C279.257 351.11 276.592 351.742 274.332 353.104C271.169 354.994 270.967 357.357 269.61 360.383C268.762 362.273 267.356 362.549 265.612 363.31C263.156 364.372 263.107 365.636 263.156 367.839C263.193 369.742 263.236 371.651 263.273 373.553C263.273 374.652 261.596 374.609 261.572 373.516C261.51 370.81 261.068 367.815 261.455 365.145Z" fill="#4A3333"></path><path d="M242.573 493.914L259.723 384.636C259.895 383.556 261.566 384.022 261.369 385.09C255.638 421.504 249.919 457.934 244.212 494.381C243.647 494.215 243.125 494.061 242.573 493.914Z" fill="#4A3333"></path><path d="M299.557 203.81C298.944 208.504 299.397 213.277 300.884 217.772C302.754 223.365 304.289 229.064 305.483 234.839C306.666 240.367 307.69 245.929 308.554 251.526C309.389 256.958 311.126 262.18 311.912 267.63C312.562 271.603 312.627 275.649 312.103 279.641C311.489 283.624 309.321 287.14 308.934 291.142C308.725 293.271 309.063 298.292 311.888 298.506C314.713 298.721 317.279 299.869 319.871 300.869C327.374 303.735 334.725 302.097 342.388 300.924C346.687 300.311 350.899 298.74 355.204 298.617C363.518 298.377 371.826 297.911 380.122 297.389C386.263 296.997 392.404 296.628 398.501 295.984C409.364 294.842 430.635 291.332 432.275 275.731C433.724 261.953 416.278 219.582 409.444 210.456C405.87 205.694 403.383 202.632 400.03 199.833C399.772 199.612 399.502 199.397 399.238 199.182C398.796 198.826 398.348 198.477 397.863 198.127L397.249 197.673C394.012 195.457 390.649 193.43 387.178 191.603C381.516 188.534 375.744 185.429 370.42 182.293L368.689 181.268C368.074 179.071 365.956 175.941 364.63 175.076C364.132 174.756 363.58 178.034 363.107 177.708C362.063 176.997 361.05 176.291 360.086 175.585C358.486 174.387 356.519 173.784 354.522 173.879C348.142 174.247 342.898 178.647 335.922 179.028C333.865 179.138 331.575 180.439 329.708 181.207C325.803 182.815 321.946 184.539 318.096 186.276C311.697 189.167 304.415 191.756 301.117 198.624C300.34 200.265 299.814 202.013 299.557 203.81Z" fill="#EFB44B"></path><path d="M345.845 201.038C349.376 205.899 353.687 210.36 355.333 216.289C355.621 217.314 356.917 217.136 357.396 216.412C364.151 206.347 367.319 193.992 370.371 182.283L368.639 181.258C365.569 192.151 362.695 203.701 356.721 213.355C354.719 208.267 350.93 204.149 347.718 199.767C346.865 198.595 344.967 199.86 345.845 201.038Z" fill="#D89B39"></path><path d="M321.836 211.905C321.768 210.358 322.573 207.688 322.72 207.05C323.86 202.394 325.358 197.832 327.203 193.407C328.676 189.725 330.273 186.147 331.851 182.526C332.336 181.397 333.724 179.488 333.448 180.636C331.55 188.498 327.976 195.838 325.631 203.558C325.397 204.325 324.753 205.455 324.759 206.24C324.755 206.327 324.782 206.413 324.834 206.482C324.887 206.552 324.962 206.601 325.047 206.621C325.483 206.67 326.275 205.547 326.539 205.283C327.215 204.669 327.896 204.055 328.59 203.442C330.212 202.055 332.078 200.324 334.049 199.471C334.406 199.317 334.927 199.25 335.069 199.606C335.21 199.962 334.946 200.177 334.725 200.385C331.143 203.783 327.783 207.407 324.667 211.236C323.936 212.15 321.946 214.402 321.836 211.905Z" fill="#D89B39"></path><path d="M335.879 205.148C335.849 204.043 337.077 203.429 337.107 204.534C337.267 211.119 336.205 218.649 335.13 225.149C333.902 232.636 333.392 239.804 334.553 247.328C336.61 260.603 338.765 275.719 338.336 289.221C338.299 290.319 337.028 288.503 337.064 287.379C337.513 273.264 335.302 261.376 333.423 247.488C331.581 233.9 336.205 218.668 335.879 205.148Z" fill="#D89B39"></path><path d="M330.347 273.289C329.8 273.252 323.819 271.135 322.229 270.595C320.761 270.092 319.066 269.024 317.47 269.49C316.907 269.687 316.382 269.977 315.916 270.349C314.442 271.423 313.061 273.301 311.317 273.878C309.573 274.455 307.516 273.185 305.987 274.535C304.611 275.762 304.145 278.002 305.256 279.537C305.827 280.31 306.711 280.844 307.141 281.703C307.798 283.023 307.19 284.667 307.694 286.048C308.308 287.816 310.562 288.62 311.212 290.387C311.599 291.437 311.36 292.676 311.906 293.658C312.637 294.966 314.43 295.229 315.499 296.285C315.799 296.586 316.039 296.948 316.34 297.255C317.427 298.353 319.367 298.771 320.841 299.096C322.207 299.368 323.6 299.475 324.992 299.415C325.373 299.415 330.979 299.12 330.967 299.016C330.899 298.488 330.85 297.967 330.795 297.439C329.978 289.491 329.419 281.274 330.347 273.289Z" fill="#E9946B"></path><path d="M391.089 268.417L391.292 268.349L391.077 267.275C391.083 267.656 391.083 268.036 391.089 268.417Z" fill="white"></path><path d="M433.079 271.454C432.367 268.564 431.397 265.741 430.555 263.206C429.622 260.395 428.646 257.597 427.939 254.724C427.325 252.269 427.325 250.637 425.274 249.035C420.27 256.443 413.288 260.536 405.01 263.672C399.201 265.876 392.938 268.343 386.828 269.582C386.343 269.681 359.551 275.106 330.334 273.265C330.334 273.265 327.878 295.359 332.791 306.405C349.284 306.958 365.882 306.866 382.351 305.792C387.724 305.442 393.14 304.564 398.489 304.417C405.65 304.252 412.71 302.686 419.269 299.808C421.473 298.808 423.629 297.531 425.115 295.61C425.987 294.481 426.595 293.155 427.424 292.001C428.517 290.473 429.966 289.234 431.151 287.785C434.878 283.207 434.498 277.199 433.079 271.454Z" fill="#EFB44B"></path><path d="M318.213 273.48C315.793 273.277 313.368 273.191 310.955 272.927C309.726 272.799 309.419 274.928 310.66 275.106C313.157 275.518 315.682 275.743 318.213 275.781C319.717 275.769 319.674 273.603 318.213 273.48Z" fill="#D07453"></path><path d="M397.402 265.691C395.977 266.029 390.267 267.029 388.836 267.342C386.472 263.169 387.11 259.173 386.306 254.626C385.581 250.569 380.62 241.787 378.127 238.62C377.236 237.497 375.29 238.62 376.174 239.804C379.171 243.898 383.979 253.024 384.2 258.216C384.341 261.647 384.617 264.924 386.496 267.802C369.175 271.354 351.483 272.778 333.816 272.043C332.447 271.988 332.502 274.074 333.853 274.16C354.154 275.418 378.323 272.798 398.071 267.943C399.551 267.575 398.888 265.317 397.402 265.691Z" fill="#D89B39"></path><path d="M398.354 198.502C396.193 198.609 394.071 199.126 392.103 200.024C391.096 200.681 390.15 201.399 389.137 202.037C384.654 206.02 381.823 211.678 380.043 217.306C379.238 219.887 378.61 222.52 378.164 225.186C377.906 226.696 377.701 228.212 377.55 229.734C377.386 230.802 377.306 231.882 377.31 232.962C377.347 233.453 377.47 233.772 377.74 233.662C377.869 233.584 377.979 233.479 378.063 233.353C378.147 233.228 378.202 233.086 378.225 232.938C379.987 226.929 380.067 220.442 382.523 214.686C382.615 214.471 382.72 214.268 382.818 214.072C383.536 212.241 384.426 210.481 385.477 208.819C386.612 206.854 388.064 205.092 389.775 203.602C392.269 201.448 395.953 199.226 399.447 199.306L399.257 199.152C398.931 198.944 398.649 198.723 398.354 198.502Z" fill="#D89B39"></path><path d="M338.01 315.611C338.01 315.611 336.868 380.727 340.301 383.587C343.733 386.447 401.449 390.436 404.881 383.016C406.275 379.99 409.456 317.348 409.456 317.348L402.597 317.919C402.597 317.919 400.878 376.185 397.451 377.327C394.025 378.468 348.873 379.61 346.582 376.756C344.292 373.902 345.44 315.636 345.44 315.636L338.01 315.611Z" fill="#4D4D4D"></path><path d="M415.167 305.331C415.167 305.331 334.584 299.047 331.728 303.042C328.873 307.037 330.009 314.47 331.728 315.611C333.448 316.753 412.883 321.325 415.738 318.471C418.593 315.617 416.88 305.331 415.167 305.331Z" fill="#EA4550"></path><path d="M331.249 316.322C331.075 316.196 330.954 316.011 330.91 315.801C330.867 315.591 330.903 315.372 331.012 315.187C331.121 315.003 331.296 314.866 331.501 314.803C331.706 314.74 331.927 314.757 332.121 314.849C334.964 315.77 397.488 319.661 412.784 318.249C412.898 318.235 413.014 318.243 413.125 318.275C413.236 318.306 413.339 318.359 413.428 318.432C413.518 318.504 413.592 318.593 413.646 318.695C413.7 318.796 413.732 318.908 413.742 319.022C413.761 319.249 413.69 319.474 413.544 319.649C413.398 319.823 413.189 319.933 412.962 319.955C410.881 320.145 407.62 320.231 403.573 320.231C380.755 320.231 333.085 317.543 331.249 316.322Z" fill="#BE2328"></path><path d="M345.827 126.568C345.669 126.577 345.512 126.545 345.37 126.474C345.229 126.403 345.109 126.295 345.023 126.163C343.786 124.113 342.857 121.892 342.266 119.572C341.037 114.564 341.965 110.366 345.017 107.383C345.188 107.241 345.406 107.169 345.629 107.181C345.851 107.193 346.06 107.288 346.215 107.448C346.37 107.607 346.459 107.82 346.465 108.042C346.47 108.264 346.392 108.48 346.245 108.647C339.957 114.785 346.447 125.107 346.515 125.218C346.578 125.316 346.622 125.426 346.643 125.541C346.663 125.656 346.661 125.774 346.636 125.888C346.611 126.002 346.563 126.11 346.496 126.206C346.429 126.301 346.344 126.383 346.245 126.445C346.117 126.518 345.974 126.56 345.827 126.568Z" fill="#5A475A"></path><path d="M345.201 126.291C344.863 123.431 342.849 121.535 343.174 118.313C343.45 115.971 344.38 113.754 345.859 111.917C347.337 110.079 349.303 108.695 351.532 107.922C354.098 107.075 356.856 107.1 359.557 107.137L367.037 107.223C368.56 107.223 370.107 107.272 371.501 107.953C373.454 108.929 375.056 109.647 375.799 111.709C376.542 113.771 377.519 116.263 377.814 119.123C382.855 118.754 387.847 123.695 386.478 129.163C388.572 131.661 388.646 135.963 387.755 137.798C386.232 140.94 388.701 141.597 389.757 144.432C390.408 146.169 390.144 147.538 389.309 149.158C387.098 153.405 383.986 157.119 380.19 160.039C376.782 162.635 366.275 168.103 366.275 168.103C358.974 168.748 347.657 146.409 347.657 146.409L346.957 140.646C346.429 136.333 345.903 132.019 345.379 127.702L345.201 126.291Z" fill="#5A475A"></path><path d="M371.986 158.182C371.986 158.182 370.862 160.072 369.573 162.674C367.884 166.08 365.238 173.641 364.66 177.636C364.512 178.678 364.116 179.67 363.506 180.527C361.007 184.031 356.806 188.235 350.819 193.832C344.679 199.577 337.31 208.838 335.548 211.084C336.536 201.989 334.897 192.801 335.363 183.682C335.413 182.651 335.492 181.619 335.609 180.613C337.55 176.863 340.356 171.782 340.46 171.536C340.903 170.295 341.643 169.18 342.616 168.29C343.346 167.676 343.985 167.436 344.519 166.583C345.326 165.305 346.03 163.965 346.625 162.576L371.986 158.182Z" fill="#E9946B"></path><path d="M380.006 153.927C379.029 164.636 372.023 164.207 369.204 163.323C368.234 163.01 368.854 162.175 368.854 162.175C364.31 168.582 358.753 171.774 352.637 172.056C348.971 172.151 345.332 171.404 342.001 169.871C341.387 169.601 340.73 169.294 340.092 168.975C336.616 167.208 330.156 162.445 329.229 157.928C329.229 157.793 329.18 157.658 329.161 157.523C328.013 148.735 346.711 123.665 346.711 123.665C349.008 122.664 352.926 123.051 354.344 123.665C355.763 124.278 359.705 125.285 361.547 126.991C362.21 129.329 363.205 134.969 366.791 138.038C367.587 138.741 368.332 139.499 369.02 140.309C370.033 141.646 369.456 142.727 369.174 144.384C368.891 146.041 368.953 146.838 368.173 148.256C367.747 148.813 367.53 149.501 367.559 150.202C367.749 151.141 369.315 152.147 369.849 152.073C370.074 152.034 370.285 151.939 370.463 151.797C377.832 146.777 380.245 151.337 380.006 153.927Z" fill="#E9946B"></path><path d="M340.208 145.291C340.334 145.073 340.539 144.912 340.781 144.843C341.023 144.775 341.283 144.803 341.504 144.923L342.824 145.678C342.934 145.739 343.03 145.82 343.107 145.918C343.185 146.016 343.243 146.129 343.277 146.249C343.311 146.369 343.321 146.495 343.307 146.619C343.292 146.743 343.254 146.864 343.193 146.973C343.132 147.082 343.05 147.178 342.952 147.256C342.854 147.333 342.742 147.391 342.621 147.425C342.501 147.459 342.375 147.469 342.251 147.455C342.127 147.441 342.006 147.402 341.897 147.341L340.577 146.586C340.358 146.461 340.198 146.256 340.129 146.014C340.06 145.772 340.089 145.512 340.208 145.291Z" fill="#D45C48"></path><path d="M355.769 134.294C356.751 135.184 357.869 135.914 358.808 136.853C359.748 137.792 360.589 138.891 361.504 139.885C362.327 140.781 361.001 142.143 360.172 141.235C359.343 140.327 358.428 139.167 357.476 138.209C356.524 137.252 355.419 136.54 354.405 135.65C353.392 134.76 354.86 133.478 355.769 134.294Z" fill="#5A475A"></path><path d="M345.581 129.759C345.756 129.661 345.894 129.508 345.972 129.323C346.051 129.139 346.066 128.933 346.016 128.739C345.965 128.545 345.852 128.373 345.693 128.25C345.535 128.127 345.34 128.06 345.139 128.059C345.023 128.059 343.371 127.765 340.743 129.084C340.534 129.198 340.378 129.388 340.307 129.615C340.236 129.841 340.256 130.087 340.363 130.299C340.47 130.511 340.655 130.673 340.88 130.751C341.104 130.829 341.35 130.817 341.565 130.717C343.782 129.6 345.096 129.882 345.121 129.882C345.283 129.883 345.442 129.84 345.581 129.759Z" fill="#5A475A"></path><path d="M355.228 140.745C355.677 140.937 356.091 141.2 356.456 141.524C356.917 141.948 356.714 142.641 357.071 143.071C357.194 143.215 357.354 143.324 357.534 143.387C357.713 143.45 357.906 143.465 358.093 143.429C358.28 143.394 358.454 143.31 358.598 143.185C358.742 143.061 358.851 142.901 358.913 142.721C358.974 142.274 358.915 141.818 358.742 141.401C358.57 140.984 358.289 140.62 357.93 140.346C357.536 140.06 357.107 139.827 356.653 139.652C356.183 139.457 355.69 139.325 355.185 139.26C354.876 139.192 354.555 139.192 354.246 139.26C353.853 139.364 353.061 140.168 353.632 140.487C353.828 140.56 354.037 140.589 354.246 140.573C354.581 140.567 354.915 140.625 355.228 140.745Z" fill="#1A1A1A"></path><path d="M337.961 137.24C337.89 137.198 337.833 137.136 337.797 137.061C337.761 136.987 337.748 136.904 337.758 136.823C337.785 136.424 337.929 136.042 338.173 135.725C338.416 135.408 338.749 135.171 339.128 135.043C339.574 134.856 340.053 134.76 340.537 134.76C341.021 134.76 341.5 134.856 341.946 135.043C342.044 135.088 342.132 135.153 342.205 135.233C342.278 135.313 342.334 135.407 342.37 135.509C342.433 135.728 342.431 135.961 342.364 136.178C342.298 136.396 342.17 136.59 341.995 136.737C341.246 137.406 340.62 136.737 339.858 136.546C339.564 136.472 339.253 136.498 338.974 136.62C338.827 136.657 337.998 137.252 337.961 137.24Z" fill="#1A1A1A"></path><path d="M377.949 112.961C377.808 112.971 377.666 112.947 377.537 112.89C377.408 112.833 377.294 112.746 377.206 112.636C371.489 105.652 355.713 108.855 355.541 108.886C355.313 108.933 355.075 108.888 354.879 108.76C354.683 108.633 354.546 108.433 354.498 108.205C354.472 108.091 354.47 107.974 354.491 107.86C354.512 107.746 354.555 107.637 354.619 107.54C354.682 107.443 354.765 107.359 354.861 107.294C354.957 107.229 355.065 107.184 355.179 107.161C355.873 107.014 372.189 103.712 378.575 111.519C378.718 111.7 378.784 111.929 378.76 112.159C378.736 112.388 378.624 112.599 378.446 112.746C378.306 112.866 378.132 112.941 377.949 112.961Z" fill="#5A475A"></path><path d="M344.654 153.044C342.5 152.221 340.205 151.833 337.9 151.903C336.481 151.933 336.475 154.124 337.9 154.112C339.988 154.113 342.062 154.455 344.04 155.125C345.422 155.56 345.919 153.535 344.654 153.044Z" fill="#D45C48"></path><path d="M358.593 172.621C358.593 172.621 353.067 182.44 335.259 181.826C335.308 180.795 335.517 181.618 335.634 180.599C337.574 176.849 340.38 171.767 340.485 171.522C340.928 170.281 341.668 169.166 342.64 168.275L358.593 172.621Z" fill="#1A1A1A"></path><path d="M369.407 163.107C368.965 163.556 368.523 163.997 368.068 164.439C367.258 165.237 364.341 168.809 363.322 167.391C362.865 166.694 362.521 165.93 362.302 165.127C361.546 162.767 360.995 160.346 360.657 157.891C360.564 157.425 360.564 156.945 360.657 156.479C361.037 155.043 363.887 154.509 365.078 154.024C366.816 153.3 368.554 152.564 370.261 151.766C371.624 151.152 372.213 149.354 370.875 149.925C365.846 152.079 359.957 154.565 354.909 156.676C350.531 158.339 339.815 161.168 336.487 161.585C333.276 161.984 331.188 159.849 330.451 156.891C330.117 155.33 329.979 153.735 330.04 152.14C328.642 154.741 327.88 157.634 327.817 160.585C327.786 163.654 328.682 167.06 330.733 169.398C332.576 171.479 331.925 172.086 334.031 173.86C334.498 174.259 334.141 177.174 334.645 177.542C337.052 179.383 343.598 178.156 345.698 178.156C350.543 178.156 367.939 168.625 370.758 163.629C370.285 163.519 369.831 163.344 369.407 163.107Z" fill="#E7ECEE"></path><path d="M355.32 158.727C348.947 163.873 341.162 166.967 332.993 167.601C332.25 167.663 332.244 168.829 332.993 168.767C341.476 168.161 349.559 164.928 356.119 159.519C356.678 159.058 355.879 158.291 355.32 158.727Z" fill="#ACBDCF"></path><path d="M356.021 170.565C350.82 174.013 344.758 175.937 338.52 176.119C338.016 175.751 337.531 175.358 337.064 174.959C343.666 174.732 349.782 173.173 355.419 169.534C356.088 169.092 356.684 170.123 356.021 170.565Z" fill="#ACBDCF"></path><path d="M292.195 277.806C289.492 278.531 286.673 278.714 283.899 278.346C280.491 277.793 277.421 276.124 274.596 274.16C269.205 270.423 264.703 262.236 266.914 255.552C268.142 251.87 271.409 249.145 272.95 245.555C273.957 243.223 274.178 240.602 275.278 238.313C276.555 235.625 278.845 233.624 280.344 231.083C281.842 228.543 282.892 225.953 284.292 223.449C287.405 217.876 290.807 212.445 294.154 207.007C297.918 200.87 302.137 194.733 305.821 188.203C307.049 186.098 330.101 212.985 326.22 220.257C323.678 225.02 321.4 229.93 319.005 234.766C314.504 243.861 309.954 252.938 305.109 261.861C303.985 263.923 302.83 265.973 301.67 267.998C300.687 269.723 300.159 271.736 299.14 273.411C297.814 275.609 295.124 277.026 292.195 277.806Z" fill="#EFB44B"></path><path d="M318.772 201.619L314.473 202.914C314.166 204.596 313.888 206.279 313.638 207.965C319.484 214.796 325.225 221.853 326.896 219.264C329.493 215.25 319.177 202.055 318.772 201.619Z" fill="#C47B0E"></path><path d="M339.496 175.351C339.387 174.985 339.174 174.658 338.882 174.412C337.537 172.982 336.149 171.589 334.706 170.251C335.149 170.005 335.756 169.797 336.26 169.582C337.019 169.318 337.715 168.9 338.305 168.354C339.41 167.164 339.244 165.286 337.654 164.746C334.749 163.739 331.513 163.96 328.59 163.107C327.295 162.727 325.987 162.138 324.648 162.34C323.309 162.543 322.192 163.568 321.001 164.329C319.036 165.63 316.739 166.323 314.627 167.397C314.109 167.627 313.641 167.956 313.251 168.367C311.974 169.864 312.913 172.258 312.121 174.056C311.826 174.725 311.305 175.283 311.004 175.934C310.761 176.587 310.599 177.267 310.519 177.959C310.373 178.691 310.168 179.409 309.904 180.107C309.927 180.204 309.917 180.306 309.874 180.396C308.184 183.992 306.26 187.473 304.114 190.817C302.886 195.524 310.132 203.563 310.168 203.6C310.205 203.637 316.395 211.174 317.464 212.327C317.746 211.603 318.028 210.885 318.317 210.173C319.938 206.202 321.565 202.232 323.359 198.328C324.378 196.113 325.581 193.983 326.773 191.854C327.203 191.087 327.663 189.595 328.345 189.037C329.026 188.478 330.494 188.478 331.372 188.079C332.393 187.707 333.232 186.958 333.718 185.987C334.111 184.974 333.675 183.753 334.289 182.808C334.706 182.163 335.517 181.887 336.088 181.408C337.279 180.457 336.837 179.352 337.384 178.186C337.863 177.18 339.766 176.762 339.496 175.351Z" fill="#E9946B"></path><path d="M334.117 168.724C332.778 167.711 330.764 165.919 328.99 166.054C327.761 166.146 326.453 167.018 325.305 167.423C323.479 168.051 321.615 168.562 319.723 168.951C318.415 169.233 318.538 171.295 319.926 171.08C322.199 170.737 324.435 170.184 326.607 169.43C327.626 169.074 328.572 168.423 329.677 168.619C330.783 168.816 333.454 170.24 334.406 170.706C335.48 171.258 335.142 169.485 334.117 168.724Z" fill="#D07453"></path><path d="M335.271 176.763C333.822 175.18 332.029 173.645 329.837 173.302C327.313 172.909 325.09 174.327 322.824 175.186C322.578 175.302 322.384 175.506 322.282 175.759C322.18 176.012 322.177 176.294 322.274 176.548C322.371 176.803 322.561 177.011 322.805 177.132C323.05 177.253 323.331 177.276 323.592 177.199C325.201 176.634 326.963 175.529 328.713 175.499C330.77 175.456 333.626 176.849 335.075 178.046C335.996 178.788 336.125 177.702 335.271 176.763Z" fill="#D07453"></path><path d="M330.512 180.385C328.096 180.337 325.692 180.754 323.432 181.612C322.149 182.072 322.892 184.03 324.188 183.594C326.217 182.981 328.31 182.6 330.426 182.459C331.55 182.305 331.716 180.385 330.512 180.385Z" fill="#D07453"></path><path d="M316.53 189.149C315.689 187.725 315.106 186.724 315.431 185.086C315.603 184.202 315.922 183.472 315.726 182.557C315.308 180.587 311.685 179.839 312.226 177.74C312.471 176.788 312.146 175.285 311.44 175.96C310.733 176.635 310.776 179.839 311.194 180.655C311.808 181.882 313.478 182.165 313.515 183.828C313.515 185.104 312.901 185.921 313.196 187.295C313.466 188.437 315.216 190.045 315.941 190.947C316.788 192.002 317.206 190.296 316.53 189.149Z" fill="#D07453"></path><path d="M324.01 222.013C320.037 230.058 317.021 236.183 312.846 244.106C310.85 247.899 309.862 251.796 307.811 255.564C305.483 259.865 303.561 264.373 302.069 269.029C301.987 269.237 301.981 269.467 302.053 269.679C302.124 269.891 302.268 270.07 302.46 270.186C302.651 270.301 302.877 270.345 303.098 270.31C303.319 270.275 303.52 270.162 303.666 269.993C306.503 266.869 307.669 261.07 309.683 257.375C311.833 253.435 312.699 249.568 314.78 245.598C319.023 237.472 321.535 231.212 325.44 222.927C326.048 221.65 324.636 220.736 324.01 222.013Z" fill="#FFE7D7"></path><path d="M55.462 403.55C32.2137 387.434 15.3515 364.413 10.0522 336.324C9.389 332.819 4.07123 334.311 4.70986 337.796C9.87411 366.077 27.4608 393.786 52.797 408.104C55.7936 409.798 58.2007 405.465 55.462 403.55Z" fill="#FFE7D7"></path><path d="M6.56432 320.925C6.1222 318.157 4.72213 316.102 6.04237 313.26C7.45471 310.222 3.02732 307.54 1.48603 310.596C-0.497387 314.53 -0.97021 320.772 3.13172 323.564C4.99847 324.847 6.85293 322.767 6.56432 320.925Z" fill="#FFE7D7"></path><path d="M391.575 48.2892C382.265 41.1578 369.468 43.7047 358.618 41.9188C346.441 39.8877 334.956 34.8807 325.182 27.343C322.757 25.5019 319.459 29.6997 321.885 31.639C331.397 39.272 342.563 44.5766 354.491 47.1292C360.264 48.3199 366.067 48.6329 371.931 48.9274C377.795 49.222 383.659 49.8603 388.658 53.3032C391.777 55.4328 394.448 50.4924 391.575 48.2892Z" fill="#FFE7D7"></path><path d="M388.498 457.244C384.134 461.957 378.365 465.137 372.047 466.309C368.578 466.959 370.089 472.102 373.497 471.556C380.837 470.421 387.56 466.791 392.533 461.276C394.964 458.551 391.053 454.562 388.498 457.244Z" fill="#FFE7D7"></path></g><defs><clipPath id="clip0_717_7413"><rect width="487" height="542.802" fill="white"></rect></clipPath></defs></svg>